:SAMPLES-PER-SECOND 30
:FULLY-SPECIFIED
:DEGREES
136
root  0.320099 39.8539 19.6609 161.683 67.193 160.095
RightUpLeg  -23.1592 -4.15856 -9.22269
RightLeg  58.3161 -2.15867 -4.24258
RightFoot  4.00641 -0.359746 2.86121
RightToes  0.00048216 0.542163 -0.142577
Spine  7.94245 1.1559 -7.84787
Spine1  11.616 1.36715 -1.8082
HEad  -3.26296 7.12536 -3.49533
LeftShoulder1  7.52636 -11.8844 -42.4916
LeftArm  -13.9105 23.2863 -18.0895
LeftForeArm  61.4313 -78.9216 -78.1613
LeftHand  -0.25398 0.0180481 5.50724
RightShoulder  5.02903 9.07944 34.0183
RightArm  -4.50044 -23.1685 26.5686
RightForeArm  65.3312 75.067 125.059
RightHand  0.913268 -11.5483 -17.9275
LeftUpLeg  -6.15169 10.8977 -9.75272
LeftLeg  15.2907 14.1317 1.11581
LeftFoot  -9.45878 -0.0116411 4.19041
LeftToes  1.06246e-005 4.65855e-005 -8.18505e-006
137
root  1.82653 39.8889 18.9869 162.138 67.2253 160.11
RightUpLeg  -27.0423 -5.19246 -8.74862
RightLeg  50.2419 -2.90554 -4.07852
RightFoot  2.19659 -0.171155 1.58332
RightToes  0.00048216 0.542163 -0.142577
Spine  7.40259 0.628032 -8.40992
Spine1  11.8373 0.546328 -1.04582
HEad  -2.84976 8.54215 -4.39578
LeftShoulder1  7.54704 -11.911 -42.5377
LeftArm  -12.1587 20.9006 -18.8786
LeftForeArm  55.0196 -78.5777 -71.2264
LeftHand  -0.25398 0.0180481 5.50724
RightShoulder  4.94376 9.04573 33.4507
RightArm  -7.53641 -26.6519 27.1859
RightForeArm  70.4865 74.0998 129.939
RightHand  1.03467 -12.6828 -17.1359
LeftUpLeg  -2.89213 6.77092 -8.96505
LeftLeg  13.5281 18.0835 -0.160975
LeftFoot  -10.8153 0.0495559 3.36724
LeftToes  1.06246e-005 4.65855e-005 -8.18505e-006
138
root  3.41298 39.6972 18.3264 161.474 66.7201 158.957
RightUpLeg  -29.139 -7.71466 -8.61145
RightLeg  38.8221 -3.08953 -2.97184
RightFoot  0.878317 -0.195366 1.87681
RightToes  0.00048216 0.542163 -0.142577
Spine  6.80977 0.0488955 -9.87039
Spine1  12.1724 -0.384117 -0.200418
HEad  -2.83918 9.79079 -5.44784
LeftShoulder1  7.55296 -11.9335 -42.5071
LeftArm  -10.6061 18.6181 -19.8486
LeftForeArm  50.6305 -78.2242 -66.3448
LeftHand  -0.25398 0.0180481 5.50724
RightShoulder  4.87702 9.01341 33.0209
RightArm  -11.154 -29.8686 28.0228
RightForeArm  76.182 73.0111 134.417
RightHand  1.07976 -13.5219 -16.0837
LeftUpLeg  -0.337986 4.257 -9.28855
LeftLeg  13.4643 20.4476 -0.538234
LeftFoot  -12.9749 0.117824 2.77232
LeftToes  1.06246e-005 4.65855e-005 -8.18505e-006
139
root  5.09052 39.4284 17.6392 161.412 66.071 158.484
RightUpLeg  -29.9114 -11.8273 -7.51865
RightLeg  24.9036 -0.540872 -0.655858
RightFoot  1.15515 -0.309411 2.89108
RightToes  0.00048216 0.542163 -0.142577
Spine  6.18986 -0.604542 -10.7355
Spine1  12.5348 -1.29088 0.618383
HEad  -3.04094 10.8747 -6.547
LeftShoulder1  7.54835 -11.9314 -42.4857
LeftArm  -9.1369 16.5389 -20.7428
LeftForeArm  47.9935 -77.951 -63.28
LeftHand  -0.25398 0.0180481 5.50724
RightShoulder  4.81044 8.92413 32.7656
RightArm  -14.8503 -32.6264 28.9192
RightForeArm  81.1604 71.7711 138.511
RightHand  1.13556 -14.4535 -15.2069
LeftUpLeg  2.63288 3.18235 -9.54818
LeftLeg  13.0266 20.8801 -0.929063
LeftFoot  -15.5454 0.168066 2.05796
LeftToes  1.06246e-005 4.65855e-005 -8.18505e-006
140
root  6.82883 39.1295 16.929 162.074 65.3637 159.102
RightUpLeg  -29.2666 -14.601 -6.85337
RightLeg  10.5368 2.95618 1.9201
RightFoot  0.629881 -0.375339 3.64312
RightToes  0.00048216 0.542163 -0.142577
Spine  5.94615 -1.26375 -10.8087
Spine1  12.7828 -2.22989 1.49303
HEad  -3.10722 11.9009 -7.53662
LeftShoulder1  7.54204 -11.9078 -42.517
LeftArm  -7.845 14.9263 -21.5871
LeftForeArm  46.3336 -77.7503 -61.2939
LeftHand  -0.25398 0.0180481 5.50724
RightShoulder  4.71741 8.76382 32.513
RightArm  -17.4157 -34.6885 29.2433
RightForeArm  84.0327 70.579 141.682
RightHand  1.22148 -15.4089 -14.7863
LeftUpLeg  6.30545 3.0522 -9.24088
LeftLeg  11.9666 19.6364 -1.51365
LeftFoot  -17.7865 0.141946 0.644156
LeftToes  1.06246e-005 4.65855e-005 -8.18505e-006
141
root  8.69229 38.7 16.2312 162.318 64.3294 159.78
RightUpLeg  -27.1005 -11.085 -10.2854
RightLeg  -0.354714 -0.176732 4.11068
RightFoot  -1.72021 -0.419838 4.83952
RightToes  0.00048216 0.542163 -0.142577
Spine  6.08361 -1.90677 -11.2964
Spine1  12.7926 -3.30137 2.58797
HEad  -2.82173 12.9019 -8.3262
LeftShoulder1  7.52654 -11.8878 -42.4824
LeftArm  -6.95081 13.935 -22.6465
LeftForeArm  44.9286 -77.5614 -59.5838
LeftHand  -0.25398 0.0180481 5.50724
RightShoulder  4.58433 8.57706 32.0046
RightArm  -17.7845 -35.7869 28.3456
RightForeArm  84.5471 69.7875 143.433
RightHand  1.27601 -15.685 -15.0037
LeftUpLeg  10.0173 3.97719 -8.4492
LeftLeg  12.4453 17.2148 -1.51804
LeftFoot  -19.7673 0.048149 -0.974706
LeftToes  1.06246e-005 4.65855e-005 -8.18505e-006
142
root  10.652 38.2417 15.5592 162.691 63.5511 160.793
RightUpLeg  -26.9531 -11.4935 -10.4773
RightLeg  -2.10083 -1.3325 4.11329
RightFoot  -2.61875 -0.409448 5.11484
RightToes  0.00048216 0.542163 -0.142577
Spine  6.23142 -2.38415 -11.5423
Spine1  12.8233 -4.25463 3.73903
HEad  -2.26554 13.8381 -8.93167
LeftShoulder1  7.46182 -11.8259 -42.2733
LeftArm  -6.30148 13.5045 -23.8412
LeftForeArm  43.766 -77.3916 -58.1612
LeftHand  -0.25398 0.0180481 5.50724
RightShoulder  4.40856 8.36979 31.1806
RightArm  -16.1724 -35.8669 26.4323
RightForeArm  83.5799 69.4617 144.025
RightHand  1.27801 -15.1681 -15.7722
LeftUpLeg  13.6662 5.97027 -6.77083
LeftLeg  13.7884 14.0734 -1.11067
LeftFoot  -21.1946 -0.0862118 -2.46164
LeftToes  1.06246e-005 4.65855e-005 -8.18505e-006
143
root  12.6415 37.8456 14.8776 164.056 63.7755 162.712
RightUpLeg  -28.9467 -12.5403 -8.84969
RightLeg  4.55541 -3.69262 3.46025
RightFoot  1.28111 -0.307487 2.99213
RightToes  0.00048216 0.542163 -0.142577
Spine  6.20338 -2.63842 -10.0073
Spine1  13.0383 -4.65291 4.07175
HEad  -1.68305 14.7437 -9.51955
LeftShoulder1  7.35491 -11.6912 -42.0204
LeftArm  -5.43625 13.5188 -24.724
LeftForeArm  42.5046 -77.2194 -56.9125
LeftHand  -0.25398 0.0180481 5.50724
RightShoulder  4.2128 8.09174 30.3741
RightArm  -13.9109 -35.1697 24.3512
RightForeArm  82.1163 69.4526 143.946
RightHand  1.26606 -14.5747 -16.5777
LeftUpLeg  17.1604 9.31419 -3.79103
LeftLeg  15.1151 9.3893 -0.488402
LeftFoot  -21.9023 -0.418796 -5.89747
LeftToes  1.06246e-005 4.65855e-005 -8.18505e-006
